# xmcd
#
# Track frame offsets: 
#        150
#        11585
#        27907
#        40399
#        54239
#        66594
#        83116
#        95209
#        108294
#        121423
#        141668
#        163573
#        180046
#        193361
#        208934
#        228009
#        245206
#        259365
#        282573
#        300005
#        313088
#        325008
#        341310
#
# Disc length: 4781 seconds
#
# Revision: 0
# Processed by: cddbd v1.5.2PL0 Copyright (c) Steve Scherf et al.
# Submitted via: ExactAudioCopy v1.3
#
DISCID=4f12ab17
DTITLE=Various Artist - Akella Presents - vol.139 - Rockin' Rollers B
DTITLE=lues  CD2
DYEAR=2018
DGENRE=Blues
TTITLE0=Red Rooster - My Automobile
TTITLE1=John 'Juke' Logan - We Got Ta' Rock
TTITLE2=Double A Blues Band - Riverhead
TTITLE3=Jimmie Vaughan - I Ain't Never
TTITLE4=Ray Fuller - Baby, You're a Habit
TTITLE5=Lazer Lloyd - Rockin' In The Holy Land
TTITLE6=The Cadillac Jack Revue - Truck Drivin' Man
TTITLE7=Vintage Trouble - Angel City, California
TTITLE8=The 44s - Slip Slidin' Thang
TTITLE9=Magnus Berg - One Way To Please You
TTITLE10=Bugs Henderson - She Feels Good
TTITLE11=Jimmy Thackery - Empty Arms Motel
TTITLE12=Too Slim and The Taildraggers - Girl Trouble
TTITLE13=The Bluescasters - Can't Get the Blues
TTITLE14=2000 Lbs Of Blues - Wolf On the River
TTITLE15=Randy McAllister - Texas Thang
TTITLE16=The Kentucky Headhunters - Stumblin'
TTITLE17=Jimmy Adler - Liquor Got Loose
TTITLE18=Dave Fields - Let's Get Shakin
TTITLE19=Big Al and the Heavyweights - Hey, Hey Nanette
TTITLE20=Jimmy D. Lane - Hey Little Girl
TTITLE21=Cash Box Kings - Default Boogie
TTITLE22=Big Daddy Lee - Back to Memphis
EXTD=
EXTT0=
EXTT1=
EXTT2=
EXTT3=
EXTT4=
EXTT5=
EXTT6=
EXTT7=
EXTT8=
EXTT9=
EXTT10=
EXTT11=
EXTT12=
EXTT13=
EXTT14=
EXTT15=
EXTT16=
EXTT17=
EXTT18=
EXTT19=
EXTT20=
EXTT21=
EXTT22=
PLAYORDER=
